<svg width="19" height="24" viewBox="0 0 19 24" fill="none" xmlns="http://www.w3.org/2000/svg">
<path d="M2.97214 10.854C2.97214 11.9436 3.63542 12.8844 4.58993 13.1559C5.30534 15.1419 7.19497 16.4735 9.30472 16.4735C11.4145 16.4735 13.3041 15.1419 14.0194 13.1559C14.974 12.8844 15.6373 11.944 15.6373 10.854C15.6373 10.1185 15.3216 9.41718 14.7907 8.96736L14.8685 8.54919C14.8685 8.39343 14.8578 8.24132 14.8455 8.08883L14.8356 7.96729L14.7319 8.03169C13.2848 8.92916 10.9404 9.3306 9.25901 9.3306C7.62542 9.3306 5.32643 8.94557 3.87298 8.08522L3.76709 8.05757L3.75828 8.17728C3.74928 8.30066 3.74028 8.42366 3.74154 8.56307L3.81804 8.96849C3.28751 9.4183 2.97214 10.1192 2.97214 10.854Z" fill="white"/>
<path d="M14.1946 17.8631C13.743 17.5833 13.3164 17.319 12.9711 17.0461L12.9271 17.0115L12.8816 17.0439C12.5588 17.2742 11.4189 18.4581 10.4899 19.4426L9.97683 18.4454L10.2439 18.2543V17.2768H8.3656V18.2543L8.63265 18.4454L8.11941 19.4429C7.19012 18.4581 6.04969 17.2743 5.72719 17.0439L5.68158 17.0115L5.63766 17.0461C5.29229 17.319 4.86568 17.5833 4.41413 17.8631C3.00652 18.7354 1.41122 19.7239 1.41122 21.4886C1.41122 22.5313 3.86002 24.0001 9.30441 24.0001C14.7488 24.0001 17.1976 22.5313 17.1976 21.4886C17.1975 19.7239 15.6021 18.7354 14.1946 17.8631Z" fill="white"/>
<path d="M3.67207 6.17925C3.67207 7.05342 6.3026 8.16234 9.259 8.16234C12.2154 8.16234 14.8459 7.05347 14.8459 6.17925V4.97428L16.8851 4.1445V6.76772C16.6476 6.80484 16.465 7.01081 16.465 7.25756C16.465 7.46864 16.604 7.65281 16.8044 7.71937L16.3988 10.3965H18.3068L17.9013 7.71937C18.1015 7.65277 18.2403 7.46859 18.2403 7.25756C18.2403 7.00936 18.0566 6.80302 17.8178 6.76697L17.8079 3.61711C17.8247 3.588 17.8247 3.55777 17.8247 3.54178C17.8247 3.52575 17.8247 3.49594 17.8177 3.49594H17.8176C17.8053 3.38128 17.7233 3.27975 17.6038 3.231L17.0636 3.00975L10.0415 0.151781C9.79821 0.0524063 9.52769 0 9.259 0C8.99032 0 8.71985 0.0524063 8.47666 0.151781L0.914129 3.23137C0.779925 3.28631 0.693207 3.40823 0.693207 3.54178C0.693207 3.675 0.779832 3.79692 0.914269 3.85256L3.67207 4.97419V6.17925Z" fill="white"/>
</svg>
